<?xml version="1.0" encoding="UTF-8"?>
<svg width="416px" height="495px" viewBox="0 0 416 495" version="1.1" xmlns="http://www.w3.org/2000/svg" xmlns:xlink="http://www.w3.org/1999/xlink">
    <title>Path 33 Copy</title>
    <defs>
        <linearGradient x1="50%" y1="0%" x2="50%" y2="100%" id="linearGradient-1">
            <stop stop-color="#6DABB6" offset="0%"></stop>
            <stop stop-color="#021222" offset="100%"></stop>
        </linearGradient>
    </defs>
    <g id="FINAL-DESIGN" stroke="none" stroke-width="1" fill="none" fill-rule="evenodd" opacity="0.100000001">
        <path d="M-24.9626084,101 L400.966547,101 C423.057937,101 440.966547,118.90861 440.966547,141 C440.966547,149.461122 438.283518,157.704318 433.303211,164.544429 L220.338633,457.036719 C207.335404,474.895765 182.316586,478.832183 164.45754,465.828954 C161.086412,463.374425 158.119834,460.407846 155.665305,457.036719 L-57.2992726,164.544429 C-70.3025018,146.685383 -66.3660842,121.666565 -48.5070377,108.663336 C-41.6669264,103.683029 -33.4237303,101 -24.9626084,101 Z" id="Path-33-Copy" fill="url(#linearGradient-1)" transform="translate(188.000000, 281.500000) rotate(76.000000) translate(-188.000000, -281.500000) "></path>
        <path d="M451.037392,47 L876.966547,47 C899.057937,47 916.966547,64.90861 916.966547,87 C916.966547,95.4611218 914.283518,103.704318 909.303211,110.544429 L696.338633,403.036719 C683.335404,420.895765 658.316586,424.832183 640.45754,411.828954 C637.086412,409.374425 634.119834,406.407846 631.665305,403.036719 L418.700727,110.544429 C405.697498,92.6853828 409.633916,67.6665651 427.492962,54.6633358 C434.333074,49.6830287 442.57627,47 451.037392,47 Z" id="Path-33-Copy-2" fill="url(#linearGradient-1)" transform="translate(664.000000, 227.500000) rotate(56.000000) translate(-664.000000, -227.500000) "></path>
    </g>
</svg>
