<?xml version="1.0" encoding="UTF-8"?>
<svg width="277px" height="277px" viewBox="0 0 277 277" version="1.1" xmlns="http://www.w3.org/2000/svg" xmlns:xlink="http://www.w3.org/1999/xlink">
    <title>Oval</title>
    <defs>
        <linearGradient x1="50%" y1="0%" x2="50%" y2="100%" id="linearGradient-1">
            <stop stop-color="#6DABB6" offset="0%"></stop>
            <stop stop-color="#021222" offset="100%"></stop>
        </linearGradient>
        <linearGradient x1="50%" y1="0%" x2="50%" y2="100%" id="linearGradient-2">
            <stop stop-color="#6DABB6" offset="0%"></stop>
            <stop stop-color="#021222" offset="100%"></stop>
        </linearGradient>
        <filter x="-24.4%" y="-24.4%" width="148.7%" height="148.7%" filterUnits="objectBoundingBox" id="filter-3">
            <feGaussianBlur stdDeviation="16" in="SourceGraphic"></feGaussianBlur>
        </filter>
    </defs>
    <g id="FINAL-DESIGN" stroke="none" stroke-width="1" fill="none" fill-rule="evenodd">
        <path d="M-520.032758,-364 L-50.9630125,-364 C-28.8716225,-364 -10.9630125,-346.09139 -10.9630125,-324 C-10.9630125,-315.544645 -13.6423897,-307.306763 -18.6164186,-300.469215 L-253.151291,21.9341447 C-266.146985,39.7986752 -291.16414,43.7456471 -309.028671,30.7499531 C-312.409987,28.2901882 -315.384714,25.3154604 -317.844479,21.9341447 L-552.379352,-300.469215 C-565.375046,-318.333745 -561.428074,-343.3509 -543.563544,-356.346594 C-536.725995,-361.320623 -528.488114,-364 -520.032758,-364 Z" id="Path-33-Copy" fill="url(#linearGradient-1)" opacity="0.100000001" transform="translate(-285.500000, -170.000000) rotate(57.000000) translate(285.500000, 170.000000) "></path>
        <path d="M-84.9626084,-423 L340.966547,-423 C363.057937,-423 380.966547,-405.09139 380.966547,-383 C380.966547,-374.538878 378.283518,-366.295682 373.303211,-359.455571 L160.338633,-66.9632813 C147.335404,-49.1042348 122.316586,-45.1678172 104.45754,-58.1710464 C101.086412,-60.6255752 98.1198339,-63.5921537 95.6653051,-66.9632813 L-117.299273,-359.455571 C-130.302502,-377.314617 -126.366084,-402.333435 -108.507038,-415.336664 C-101.666926,-420.316971 -93.4237303,-423 -84.9626084,-423 Z" id="Path-33-Copy-2" fill="url(#linearGradient-2)" opacity="0.100000001" transform="translate(128.000000, -242.500000) rotate(34.000000) translate(-128.000000, 242.500000) "></path>
        <circle id="Oval" fill="#FFFFFF" opacity="0.800000012" filter="url(#filter-3)" cx="138.5" cy="138.5" r="98.5"></circle>
    </g>
</svg>
