<?xml version="1.0" encoding="UTF-8"?>
<svg width="479px" height="474px" viewBox="0 0 479 474" version="1.1" xmlns="http://www.w3.org/2000/svg" xmlns:xlink="http://www.w3.org/1999/xlink">
    <title>Path</title>
    <defs>
        <linearGradient x1="50%" y1="0%" x2="50%" y2="100%" id="linearGradient-1">
            <stop stop-color="#6DABB6" offset="0%"></stop>
            <stop stop-color="#021222" offset="100%"></stop>
        </linearGradient>
        <linearGradient x1="50%" y1="0%" x2="50%" y2="100%" id="linearGradient-2">
            <stop stop-color="#6DABB6" offset="0%"></stop>
            <stop stop-color="#021222" offset="100%"></stop>
        </linearGradient>
    </defs>
    <g id="FINAL-DESIGN" stroke="none" stroke-width="1" fill="none" fill-rule="evenodd" opacity="0.100000001">
        <path d="M-53.0327581,127 L416.036988,127 C438.128377,127 456.036988,144.90861 456.036988,167 C456.036988,175.455355 453.35761,183.693237 448.383581,190.530785 L213.848709,512.934145 C200.853015,530.798675 175.83586,534.745647 157.971329,521.749953 C154.590013,519.290188 151.615286,516.31546 149.155521,512.934145 L-85.379352,190.530785 C-98.375046,172.666255 -94.4280741,147.6491 -76.5635436,134.653406 C-69.7259948,129.679377 -61.4881136,127 -53.0327581,127 Z" id="Path-33-Copy" fill="url(#linearGradient-1)" transform="translate(181.500000, 321.000000) rotate(57.000000) translate(-181.500000, -321.000000) "></path>
        <path d="M415.037392,17 L840.966547,17 C863.057937,17 880.966547,34.90861 880.966547,57 C880.966547,65.4611218 878.283518,73.7043179 873.303211,80.5444293 L660.338633,373.036719 C647.335404,390.895765 622.316586,394.832183 604.45754,381.828954 C601.086412,379.374425 598.119834,376.407846 595.665305,373.036719 L382.700727,80.5444293 C369.697498,62.6853828 373.633916,37.6665651 391.492962,24.6633358 C398.333074,19.6830287 406.57627,17 415.037392,17 Z" id="Path-33-Copy-2" fill="url(#linearGradient-2)" transform="translate(628.000000, 197.500000) rotate(34.000000) translate(-628.000000, -197.500000) "></path>
    </g>
</svg>
